<?xml version="1.0" encoding="UTF-8" standalone="no"?><!DOCTYPE svg PUBLIC "-//W3C//DTD SVG 1.1//EN" "http://www.w3.org/Graphics/SVG/1.1/DTD/svg11.dtd"><svg width="100%" height="100%" viewBox="0 0 30 30" version="1.1" xmlns="http://www.w3.org/2000/svg" xmlns:xlink="http://www.w3.org/1999/xlink" xml:space="preserve" xmlns:serif="http://www.serif.com/" style="fill-rule:evenodd;clip-rule:evenodd;stroke-linejoin:round;stroke-miterlimit:2;"><g><path d="M29.72,6.132c-0,-3.051 -2.478,-5.528 -5.529,-5.528l-18.382,0c-3.051,0 -5.529,2.477 -5.529,5.528l0,17.736c0,3.05 2.478,5.528 5.529,5.528l18.382,-0c3.051,-0 5.529,-2.478 5.529,-5.528l-0,-17.736Z" style="fill:#0c3b7c;"/><path d="M0.281,18.491l14.703,-0l0,10.905l-14.703,-0l0,-10.905Z" style="fill:#0c3b7c;"/><path d="M13.66,19.662l-2.371,-0.003l-0,-2.835c-0,-0.606 0.235,-0.921 0.753,-0.993l1.618,-0c1.154,-0 1.9,0.727 1.9,1.905c-0,1.209 -0.728,1.924 -1.9,1.926l-0,-0Zm-2.371,-6.012l-0,-2.382c-0,-0.653 0.276,-0.963 0.882,-1.003l1.214,-0c1.04,-0 1.664,0.622 1.664,1.665c-0,0.793 -0.428,1.72 -1.626,1.72l-2.134,-0Zm5.399,1.194l-0.429,-0.241l0.374,-0.32c0.436,-0.374 1.166,-1.216 1.166,-2.669c-0,-2.224 -1.725,-3.659 -4.395,-3.659l-3.047,-0l0,-0.001l-0.347,-0c-0.791,0.029 -1.425,0.673 -1.434,1.469l0,12.623l4.888,-0c2.967,-0 4.883,-1.616 4.883,-4.118c-0,-1.347 -0.619,-2.499 -1.659,-3.084" style="fill:#fff;fill-rule:nonzero;"/><path d="M19.62,20.302c-0,-0.964 0.777,-1.744 1.735,-1.744c0.961,-0 1.742,0.78 1.742,1.744c0,0.963 -0.781,1.744 -1.742,1.744c-0.958,0 -1.735,-0.781 -1.735,-1.744" style="fill:#00bafc;fill-rule:nonzero;"/></g></svg>