<?xml version="1.0" encoding="UTF-8" standalone="no" ?>
<!DOCTYPE svg PUBLIC "-//W3C//DTD SVG 1.1//EN" "http://www.w3.org/Graphics/SVG/1.1/DTD/svg11.dtd">
<svg xmlns="http://www.w3.org/2000/svg" xmlns:xlink="http://www.w3.org/1999/xlink" version="1.1" width="1080" height="1080" viewBox="0 0 1080 1080" xml:space="preserve">
<desc>Created with Fabric.js 5.2.4</desc>
<defs>
</defs>
<rect x="0" y="0" width="100%" height="100%" fill="transparent"></rect>
<g transform="matrix(1 0 0 1 540 540)" id="64ca0273-1ca4-45cb-b1ab-8594b25df1b0"  >
<rect style="stroke: none; stroke-width: 1; stroke-dasharray: none; stroke-linecap: butt; stroke-dashoffset: 0; stroke-linejoin: miter; stroke-miterlimit: 4; fill: rgb(255,255,255); fill-rule: nonzero; opacity: 1; visibility: hidden;" vector-effect="non-scaling-stroke"  x="-540" y="-540" rx="0" ry="0" width="1080" height="1080" />
</g>
<g transform="matrix(1 0 0 1 540 540)" id="c156ec40-c0ee-4e95-aa46-7c2cb98bea3c"  >
</g>
<g transform="matrix(11.97 0 0 11.97 540 521.88)"  >
<g style="" vector-effect="non-scaling-stroke"   >
		<g transform="matrix(1 0 0 1 0 18.33)"  >
<path style="stroke: none; stroke-width: 1; stroke-dasharray: none; stroke-linecap: butt; stroke-dashoffset: 0; stroke-linejoin: miter; stroke-miterlimit: 4; fill: rgb(255,255,255); fill-rule: nonzero; opacity: 1;" vector-effect="non-scaling-stroke"  transform=" translate(-50, -68.33)" d="M 50 58.333 C 44.479 58.333 40 62.812 40 68.333 C 40 73.854 44.479 78.333 50 78.333 C 55.521 78.333 60 73.854 60 68.333 C 60 62.813 55.521 58.333 50 58.333 z M 50 71.667 C 48.158 71.667 46.667 70.169 46.667 68.333 C 46.667 66.491 48.158 65 50 65 C 51.843 65 53.333 66.491 53.333 68.333 C 53.333 70.169 51.842999999999996 71.667 50 71.667 z" stroke-linecap="round" />
</g>
		<g transform="matrix(1 0 0 1 0 36.67)"  >
<path style="stroke: none; stroke-width: 1; stroke-dasharray: none; stroke-linecap: butt; stroke-dashoffset: 0; stroke-linejoin: miter; stroke-miterlimit: 4; fill: rgb(255,255,255); fill-rule: nonzero; opacity: 1;" vector-effect="non-scaling-stroke"  transform=" translate(-50, -86.67)" d="M 56.667 83.333 L 43.333 83.333 C 39.650999999999996 83.333 36.666 86.318 36.666 90 L 63.333 90 C 63.333 86.318 60.352 83.333 56.667 83.333 z" stroke-linecap="round" />
</g>
		<g transform="matrix(1 0 0 1 30 18.33)"  >
<path style="stroke: none; stroke-width: 1; stroke-dasharray: none; stroke-linecap: butt; stroke-dashoffset: 0; stroke-linejoin: miter; stroke-miterlimit: 4; fill: rgb(255,255,255); fill-rule: nonzero; opacity: 1;" vector-effect="non-scaling-stroke"  transform=" translate(-80, -68.33)" d="M 80 58.333 C 74.479 58.333 70 62.812 70 68.333 C 70 73.854 74.479 78.333 80 78.333 C 85.521 78.333 90 73.854 90 68.333 C 90 62.813 85.521 58.333 80 58.333 z M 80 71.667 C 78.157 71.667 76.667 70.169 76.667 68.333 C 76.667 66.491 78.157 65 80 65 C 81.843 65 83.333 66.491 83.333 68.333 C 83.333 70.169 81.843 71.667 80 71.667 z" stroke-linecap="round" />
</g>
		<g transform="matrix(1 0 0 1 28.33 36.67)"  >
<path style="stroke: none; stroke-width: 1; stroke-dasharray: none; stroke-linecap: butt; stroke-dashoffset: 0; stroke-linejoin: miter; stroke-miterlimit: 4; fill: rgb(255,255,255); fill-rule: nonzero; opacity: 1;" vector-effect="non-scaling-stroke"  transform=" translate(-78.33, -86.67)" d="M 90 83.333 L 73.333 83.333 C 69.651 83.333 66.667 86.318 66.667 90 L 90 90 z" stroke-linecap="round" />
</g>
		<g transform="matrix(1 0 0 1 -30 -30)"  >
<path style="stroke: none; stroke-width: 1; stroke-dasharray: none; stroke-linecap: butt; stroke-dashoffset: 0; stroke-linejoin: miter; stroke-miterlimit: 4; fill: rgb(255,255,255); fill-rule: nonzero; opacity: 1;" vector-effect="non-scaling-stroke"  transform=" translate(-20, -20)" d="M 20 10 C 14.479 10 10 14.479 10 20 C 10 25.521 14.479 30 20 30 C 25.522 30 30 25.521 30 20 C 30 14.479 25.522 10 20 10 z M 20 23.333 C 18.161 23.333 16.668 21.842 16.668 20 C 16.668 18.158 18.16 16.667 20 16.667 C 21.842 16.667 23.332 18.158 23.332 20 C 23.332 21.842 21.842000000000002 23.333 20 23.333 z" stroke-linecap="round" />
</g>
		<g transform="matrix(1 0 0 1 13.33 -18.33)"  >
<path style="stroke: none; stroke-width: 1; stroke-dasharray: none; stroke-linecap: butt; stroke-dashoffset: 0; stroke-linejoin: miter; stroke-miterlimit: 4; fill: rgb(255,255,255); fill-rule: nonzero; opacity: 1;" vector-effect="non-scaling-stroke"  transform=" translate(-63.33, -31.67)" d="M 90 10 L 36.667 10 L 36.667 16.667 L 83.333 16.667 L 83.333 46.667 L 36.667 46.667 L 36.667 53.333 L 90 53.333 z" stroke-linecap="round" />
</g>
		<g transform="matrix(1 0 0 1 -18.33 9.35)"  >
<path style="stroke: none; stroke-width: 1; stroke-dasharray: none; stroke-linecap: butt; stroke-dashoffset: 0; stroke-linejoin: miter; stroke-miterlimit: 4; fill: rgb(255,255,255); fill-rule: nonzero; opacity: 1;" vector-effect="non-scaling-stroke"  transform=" translate(-31.67, -59.35)" d="M 48.538 28.7 C 43.571 33.838 36.986999999999995 36.667 29.997999999999998 36.667 L 9.999999999999996 36.667 L 9.999999999999996 90 L 16.667999999999996 90 L 16.667999999999996 70 L 23.332999999999995 70 L 23.332999999999995 90 L 29.999999999999993 90 L 29.999999999999993 43.333 C 39.10999999999999 43.333 47.35699999999999 39.510999999999996 53.33299999999999 33.333 z M 23.331999999999997 63.333 L 16.666999999999998 63.333 L 16.666999999999998 43.333 L 23.331999999999997 43.333 z" stroke-linecap="round" />
</g>
</g>
</g>
</svg>