<?xml version="1.0" encoding="UTF-8" standalone="no" ?>
<!DOCTYPE svg PUBLIC "-//W3C//DTD SVG 1.1//EN" "http://www.w3.org/Graphics/SVG/1.1/DTD/svg11.dtd">
<svg xmlns="http://www.w3.org/2000/svg" xmlns:xlink="http://www.w3.org/1999/xlink" version="1.1" width="120" height="120" viewBox="0 0 120 120" xml:space="preserve">
<desc>Created with Fabric.js 5.2.4</desc>
<defs>
</defs>
<rect x="0" y="0" width="100%" height="100%" fill="transparent"></rect>
<g transform="matrix(1 0 0 1 60 60)" id="1b991696-391f-4faf-ae49-e87cd589fef0"  >
<rect style="stroke: none; stroke-width: 1; stroke-dasharray: none; stroke-linecap: butt; stroke-dashoffset: 0; stroke-linejoin: miter; stroke-miterlimit: 4; fill: rgb(255,255,255); fill-rule: nonzero; opacity: 1; visibility: hidden;" vector-effect="non-scaling-stroke"  x="-60" y="-60" rx="0" ry="0" width="120" height="120" />
</g>
<g transform="matrix(Infinity NaN NaN Infinity 0 0)" id="6b31938b-5c26-4249-9d63-5d117d3674a5"  >
</g>
<g transform="matrix(0.14 0 0 0.17 61.81 58.43)"  >
<g style="" vector-effect="non-scaling-stroke"   >
		<g transform="matrix(2.94 0 0 2.94 -104.16 65.75)"  >
<path style="stroke: none; stroke-width: 1; stroke-dasharray: none; stroke-linecap: butt; stroke-dashoffset: 0; stroke-linejoin: miter; stroke-miterlimit: 4; fill: rgb(255,255,255); fill-rule: nonzero; opacity: 1;" vector-effect="non-scaling-stroke"  transform=" translate(-100.78, -158.66)" d="M 193.26 118.059 C 192.38299999999998 118.059 191.483 118.185 190.583 118.432 L 180.411 121.23400000000001 L 169.85 95.504 C 166.857 88.215 158.012 82.284 150.13299999999998 82.284 L 51.28299999999999 82.284 C 43.402999999999984 82.284 34.55899999999998 88.215 31.566999999999986 95.504 L 21.018999999999984 121.19800000000001 L 10.972999999999985 118.43100000000001 C 10.073999999999984 118.18400000000001 9.173999999999985 118.058 8.296999999999985 118.058 C 3.488999999999985 118.058 -1.5987211554602254e-14 121.73100000000001 -1.5987211554602254e-14 126.79 L -1.5987211554602254e-14 132.786 C -1.5987211554602254e-14 138.692 4.805999999999984 143.498 10.711999999999984 143.498 L 11.862999999999984 143.498 L 10.157999999999983 147.65099999999998 C 7.377999999999984 154.421 5.114999999999983 165.88699999999997 5.114999999999983 173.20899999999997 L 5.114999999999983 224.32399999999998 C 5.114999999999983 230.23 9.920999999999983 235.03599999999997 15.826999999999984 235.03599999999997 L 29.816999999999986 235.03599999999997 C 35.722999999999985 235.03599999999997 40.52899999999998 230.22999999999996 40.52899999999998 224.32399999999998 L 40.52899999999998 211.55999999999997 L 160.88599999999997 211.55999999999997 L 160.88599999999997 224.32399999999998 C 160.88599999999997 230.23 165.69199999999998 235.03599999999997 171.59799999999996 235.03599999999997 L 185.58599999999996 235.03599999999997 C 191.49199999999996 235.03599999999997 196.29799999999994 230.22999999999996 196.29799999999994 224.32399999999998 L 196.29799999999994 173.21 C 196.29799999999994 165.889 194.03499999999994 154.423 191.25499999999994 147.65200000000002 L 189.54999999999993 143.49900000000002 L 190.84399999999994 143.49900000000002 C 196.74999999999994 143.49900000000002 201.55599999999993 138.693 201.55599999999993 132.78700000000003 L 201.55599999999993 126.79100000000004 C 201.557 121.732 198.067 118.059 193.26 118.059 z M 28.698 137.681 L 44.676 98.763 C 46.466 94.403 51.786 90.83500000000001 56.499 90.83500000000001 L 144.917 90.83500000000001 C 149.63 90.83500000000001 154.95 94.40200000000002 156.74 98.763 L 172.71800000000002 137.681 C 174.507 142.04100000000003 172.116 145.609 167.40300000000002 145.609 L 34.014 145.609 C 29.3 145.608 26.909 142.041 28.698 137.681 z M 64.365 186.908 C 64.365 189.265 62.43599999999999 191.19199999999998 60.080999999999996 191.19199999999998 L 29.729 191.19199999999998 C 27.372 191.19199999999998 25.444 189.26399999999998 25.444 186.908 L 25.444 172.34199999999998 C 25.444 169.986 27.372 168.058 29.729 168.058 L 60.081 168.058 C 62.436 168.058 64.36500000000001 169.986 64.36500000000001 172.34199999999998 L 64.36500000000001 186.908 z M 175.684 186.908 C 175.684 189.265 173.755 191.19199999999998 171.4 191.19199999999998 L 141.048 191.19199999999998 C 138.693 191.19199999999998 136.764 189.26399999999998 136.764 186.908 L 136.764 172.34199999999998 C 136.764 169.986 138.693 168.058 141.048 168.058 L 171.4 168.058 C 173.755 168.058 175.684 169.986 175.684 172.34199999999998 L 175.684 186.908 z" stroke-linecap="round" />
</g>
		<g transform="matrix(2.94 0 0 2.94 286.2 -1.68)"  >
<path style="stroke: none; stroke-width: 1; stroke-dasharray: none; stroke-linecap: butt; stroke-dashoffset: 0; stroke-linejoin: miter; stroke-miterlimit: 4; fill: rgb(255,255,255); fill-rule: nonzero; opacity: 1;" vector-effect="non-scaling-stroke"  transform=" translate(-233.76, -135.69)" d="M 259.125 37.486 L 208.39 37.486 C 201.00199999999998 37.486 194.992 43.497 194.992 50.884 L 194.992 101.62 C 194.992 109.00800000000001 201.003 115.019 208.39 115.019 L 228.75699999999998 115.019 L 228.75699999999998 228.89100000000002 C 228.75699999999998 231.65300000000002 230.99499999999998 233.89100000000002 233.75699999999998 233.89100000000002 C 236.51899999999998 233.89100000000002 238.75699999999998 231.65300000000002 238.75699999999998 228.89100000000002 L 238.75699999999998 115.02 L 259.125 115.02 C 266.513 115.02 272.523 109.009 272.523 101.621 L 272.523 50.885 C 272.523 43.497 266.513 37.486 259.125 37.486 z M 247.634 79.553 C 244.71599999999998 82.17999999999999 240.41799999999998 83.512 234.85999999999999 83.512 L 227.51299999999998 83.512 C 226.63099999999997 83.512 225.91299999999998 84.231 225.91299999999998 85.113 L 225.91299999999998 97.502 C 225.91299999999998 98.848 224.81799999999998 99.942 223.47199999999998 99.942 L 217.908 99.942 C 216.56099999999998 99.942 215.46699999999998 98.847 215.46699999999998 97.502 L 215.46699999999998 55.007 C 215.46699999999998 53.66 216.56199999999998 52.565 217.908 52.565 L 231.92399999999998 52.565 C 241.20899999999997 52.565 244.67499999999998 53.964 247.52299999999997 56.381 C 250.52699999999996 58.93 252.04899999999998 62.834 252.04899999999998 67.987 C 252.048 73.022 250.564 76.912 247.634 79.553 z" stroke-linecap="round" />
</g>
		<g transform="matrix(2.94 0 0 2.94 286.3 -200.47)"  >
<path style="stroke: none; stroke-width: 1; stroke-dasharray: none; stroke-linecap: butt; stroke-dashoffset: 0; stroke-linejoin: miter; stroke-miterlimit: 4; fill: rgb(255,255,255); fill-rule: nonzero; opacity: 1;" vector-effect="non-scaling-stroke"  transform=" translate(-233.79, -67.97)" d="M 239.681 62.825 C 238.32500000000002 61.801 235.92600000000002 61.281000000000006 232.55200000000002 61.281000000000006 L 227.51300000000003 61.281000000000006 C 226.63100000000003 61.281000000000006 225.91300000000004 61.99900000000001 225.91300000000004 62.88 L 225.91300000000004 73.062 C 225.91300000000004 73.943 226.63100000000003 74.661 227.51300000000003 74.661 L 230.53200000000004 74.661 C 231.64100000000005 74.661 233.43300000000005 74.57900000000001 234.52600000000004 74.478 C 235.58700000000005 74.381 238.58200000000005 73.94699999999999 239.68100000000004 73.11699999999999 C 241.00000000000003 72.11899999999999 241.66900000000004 70.39299999999999 241.66900000000004 67.98799999999999 C 241.669 65.56 241 63.823 239.681 62.825 z" stroke-linecap="round" />
</g>
</g>
</g>
</svg>