<svg width="16" height="13" viewBox="0 0 16 13" fill="none" xmlns="http://www.w3.org/2000/svg">
<path d="M1.84896 0H13.957C14.1146 0 14.2656 0.0312187 14.4036 0.0884531C14.5469 0.148289 14.6758 0.235441 14.7839 0.342105C14.8919 0.45007 14.9792 0.578847 15.0378 0.721933C15.0951 0.859816 15.1263 1.01071 15.1263 1.1681V6.72113C15.1927 6.76016 15.2578 6.80308 15.3177 6.84991C15.3854 6.90194 15.4492 6.95657 15.5078 7.01511C15.6589 7.166 15.7813 7.3416 15.8633 7.53932C15.9414 7.72534 15.9844 7.93216 15.9844 8.15589V8.94807C15.9883 8.96108 15.9948 8.98709 15.9948 8.98709V8.98969L16 9.05343L15.9935 9.08855C15.9909 9.10156 15.987 9.11457 15.9831 9.12758V12.7255C15.9831 12.801 15.9518 12.8699 15.9023 12.9194C15.8529 12.9688 15.7839 13 15.7083 13H15.1419C15.0781 13 15.0195 12.9779 14.9727 12.9415C14.9258 12.905 14.8906 12.853 14.8763 12.7932C14.7721 12.494 14.6667 12.2573 14.5534 12.0725C14.4414 11.8904 14.3216 11.7604 14.1836 11.668C14.0443 11.5756 13.8776 11.5171 13.6758 11.482C13.4701 11.4456 13.2305 11.4339 12.9453 11.4352L2.5599 11.4482H2.55469C2.35026 11.4443 2.18229 11.4703 2.04167 11.5249C1.90234 11.5795 1.78906 11.6615 1.69531 11.7669C1.58984 11.8839 1.5013 12.0335 1.42057 12.2078C1.33854 12.386 1.26432 12.589 1.1901 12.8114C1.17188 12.8686 1.13542 12.9141 1.08984 12.9467C1.04688 12.9779 0.994792 12.9961 0.941406 12.9987C0.9375 13 0.933594 13 0.929688 13H0.27474C0.199219 13 0.130208 12.9688 0.0807292 12.9194C0.03125 12.8699 0 12.801 0 12.7255V8.0024C0 7.79818 0.0390625 7.61087 0.109375 7.44176C0.184896 7.26226 0.295573 7.10226 0.433594 6.96438C0.472656 6.92536 0.515625 6.88633 0.561198 6.84991C0.60026 6.81869 0.639323 6.78877 0.68099 6.76146V1.15639C0.68099 0.998999 0.71224 0.84941 0.769531 0.714128C0.829427 0.572343 0.916667 0.444867 1.02474 0.338203C1.13281 0.231539 1.26172 0.146988 1.40365 0.0884531C1.54167 0.0312187 1.69141 0 1.84896 0ZM13.957 0.548929H1.84896C1.76432 0.548929 1.68359 0.565839 1.60938 0.595757C1.53255 0.626976 1.46484 0.672504 1.40755 0.728437C1.35156 0.78307 1.30599 0.85071 1.27474 0.923554C1.24609 0.995097 1.23047 1.07314 1.23047 1.15639V6.4974C1.26953 6.48439 1.30859 6.47398 1.34896 6.46358C1.41276 6.44667 1.47656 6.43236 1.54036 6.42195C1.62891 6.40634 1.72526 6.38943 1.82943 6.37122C1.90755 6.35821 1.99089 6.34391 2.07682 6.3309V4.96768C2.07682 4.76216 2.11849 4.56574 2.19271 4.38623C2.27083 4.19892 2.38411 4.03112 2.52474 3.89063C2.66536 3.75015 2.83333 3.63698 3.02083 3.55894C3.20052 3.48479 3.39714 3.44317 3.60286 3.44317H6.18359C6.38932 3.44317 6.58594 3.48479 6.76563 3.55894C6.95313 3.63698 7.12109 3.75015 7.26172 3.89063C7.40234 4.03112 7.51563 4.19892 7.59375 4.38623C7.66797 4.56574 7.70964 4.76216 7.70964 4.96768V5.8379C7.80078 5.8366 7.89193 5.8366 7.98438 5.8366V4.96768C7.98438 4.76216 8.02604 4.56574 8.10026 4.38623C8.17839 4.19892 8.29167 4.03112 8.43229 3.89063C8.57292 3.75015 8.74089 3.63698 8.92839 3.55894C9.10807 3.48479 9.30469 3.44317 9.51042 3.44317H12.0911C12.2969 3.44317 12.4935 3.48479 12.6732 3.55894C12.8607 3.63698 13.0286 3.75015 13.1693 3.89063C13.3099 4.03112 13.4232 4.19892 13.5013 4.38623C13.5755 4.56574 13.6172 4.76216 13.6172 4.96768V6.31269C13.7148 6.327 13.819 6.34391 13.931 6.36212C14.0547 6.38163 14.1732 6.40114 14.2878 6.42065C14.3464 6.43106 14.4063 6.44277 14.4661 6.45707C14.5039 6.46618 14.5404 6.47529 14.5755 6.48569V1.1681C14.5755 1.08485 14.5586 1.0055 14.5286 0.93266C14.4974 0.857214 14.4505 0.789574 14.3932 0.731039C14.3359 0.673804 14.2669 0.626976 14.1927 0.595757C14.1198 0.565839 14.0404 0.548929 13.957 0.548929ZM5.6263 5.92636C5.88802 5.90684 6.15104 5.88993 6.41797 5.87693C6.66406 5.86392 6.91276 5.85481 7.16146 5.84831V4.96768C7.16146 4.8363 7.13542 4.71013 7.08724 4.59566C7.03776 4.47599 6.96484 4.36932 6.8737 4.27827C6.78385 4.18851 6.67578 4.11567 6.55599 4.06494C6.44141 4.01681 6.3151 3.99079 6.18359 3.99079H3.60286C3.47135 3.99079 3.34505 4.01681 3.23047 4.06494C3.11068 4.11437 3.00391 4.18721 2.91276 4.27827C2.82292 4.36802 2.75 4.47599 2.69922 4.59566C2.65104 4.71013 2.625 4.8363 2.625 4.96768V6.24375C2.83594 6.21253 3.04948 6.18391 3.26823 6.15529C3.50391 6.12538 3.73828 6.09806 3.97005 6.07204C4.0599 6.06164 4.15625 6.04993 4.25651 6.03952C4.35026 6.02912 4.44792 6.02001 4.55208 6.00961C4.72917 5.9927 4.90495 5.97709 5.07813 5.96278C5.25651 5.95107 5.4388 5.93806 5.6263 5.92636ZM8.53385 5.8405C8.69141 5.84311 8.84896 5.84701 9.00651 5.85221C9.18099 5.85741 9.35547 5.86522 9.52865 5.87302H9.52995C9.81511 5.88343 10.0938 5.89644 10.3646 5.91205C10.6354 5.92766 10.8997 5.94717 11.1523 5.96928C11.5195 6.0018 11.875 6.04082 12.2122 6.08635C12.5143 6.12798 12.8008 6.17481 13.069 6.22684V4.96768C13.069 4.8363 13.043 4.71013 12.9948 4.59566C12.9453 4.47599 12.8724 4.36932 12.7813 4.27827C12.6914 4.18851 12.5833 4.11567 12.4635 4.06494C12.349 4.01681 12.2227 3.99079 12.0911 3.99079H9.51172C9.38021 3.99079 9.25391 4.01681 9.13932 4.06494C9.01953 4.11437 8.91276 4.18721 8.82162 4.27827C8.73177 4.36802 8.65885 4.47599 8.60807 4.59566C8.5599 4.71013 8.53385 4.8363 8.53385 4.96768V5.8405ZM15.4349 9.31229H0.549479V12.4511H0.735677C0.808594 12.2455 0.884115 12.0543 0.96875 11.8839C1.0599 11.7018 1.16276 11.5405 1.28776 11.4013C1.4362 11.2348 1.61068 11.1061 1.82031 11.0202C2.02995 10.9357 2.27474 10.8927 2.56901 10.8992L12.9453 10.8862C13.2799 10.8862 13.5664 10.9018 13.8164 10.95C14.0703 10.9981 14.2891 11.08 14.4857 11.2101C14.668 11.3311 14.8242 11.4911 14.9648 11.7005C15.099 11.9008 15.2188 12.1467 15.3333 12.4498H15.4323V9.31229H15.4349Z" fill="white"/>
</svg>
