<svg width="31" height="31" viewBox="0 0 31 31" fill="none" xmlns="http://www.w3.org/2000/svg">
<mask id="mask0_2723_1508" style="mask-type:alpha" maskUnits="userSpaceOnUse" x="0" y="0" width="31" height="31">
<rect x="0.852539" y="0.695801" width="30" height="30" fill="#D9D9D9"/>
</mask>
<g mask="url(#mask0_2723_1508)">
<path d="M5.85254 25.6958C5.16504 25.6958 4.5765 25.451 4.08691 24.9614C3.59733 24.4718 3.35254 23.8833 3.35254 23.1958V8.1958C3.35254 7.5083 3.59733 6.91976 4.08691 6.43018C4.5765 5.94059 5.16504 5.6958 5.85254 5.6958H25.8525C26.54 5.6958 27.1286 5.94059 27.6182 6.43018C28.1078 6.91976 28.3525 7.5083 28.3525 8.1958V23.1958C28.3525 23.8833 28.1078 24.4718 27.6182 24.9614C27.1286 25.451 26.54 25.6958 25.8525 25.6958H5.85254ZM15.8525 16.9458L5.85254 10.6958V23.1958H25.8525V10.6958L15.8525 16.9458ZM15.8525 14.4458L25.8525 8.1958H5.85254L15.8525 14.4458ZM5.85254 10.6958V8.1958V23.1958V10.6958Z" fill="#00B5E2"/>
</g>
</svg>
