<svg width="31" height="30" viewBox="0 0 31 30" fill="none" xmlns="http://www.w3.org/2000/svg">
<mask id="mask0_2723_1478" style="mask-type:alpha" maskUnits="userSpaceOnUse" x="0" y="0" width="31" height="30">
<rect x="0.970703" width="30" height="30" fill="#D9D9D9"/>
</mask>
<g mask="url(#mask0_2723_1478)">
<path d="M16.9707 13.75V6.25H19.4707V9.5L25.7207 3.25L27.4707 5L21.2207 11.25H24.4707V13.75H16.9707ZM25.9082 26.25C23.2207 26.25 20.6009 25.651 18.0488 24.4531C15.4967 23.2552 13.2363 21.6719 11.2676 19.7031C9.29883 17.7344 7.7155 15.474 6.51758 12.9219C5.31966 10.3698 4.7207 7.75 4.7207 5.0625C4.7207 4.6875 4.8457 4.375 5.0957 4.125C5.3457 3.875 5.6582 3.75 6.0332 3.75H11.0957C11.3874 3.75 11.6478 3.84375 11.877 4.03125C12.1061 4.21875 12.2415 4.45833 12.2832 4.75L13.0957 9.125C13.1374 9.41667 13.1322 9.68229 13.0801 9.92188C13.028 10.1615 12.9082 10.375 12.7207 10.5625L9.7207 13.625C10.5957 15.125 11.6895 16.5312 13.002 17.8438C14.3145 19.1563 15.7624 20.2917 17.3457 21.25L20.2832 18.3125C20.4707 18.125 20.7155 17.9844 21.0176 17.8906C21.3197 17.7969 21.6165 17.7708 21.9082 17.8125L26.2207 18.6875C26.5124 18.75 26.752 18.8906 26.9395 19.1094C27.127 19.3281 27.2207 19.5833 27.2207 19.875V24.9375C27.2207 25.3125 27.0957 25.625 26.8457 25.875C26.5957 26.125 26.2832 26.25 25.9082 26.25Z" fill="#00B5E2"/>
</g>
</svg>
