<svg width="31" height="31" viewBox="0 0 31 31" fill="none" xmlns="http://www.w3.org/2000/svg">
<mask id="mask0_2723_1520" style="mask-type:alpha" maskUnits="userSpaceOnUse" x="0" y="0" width="31" height="31">
<rect x="0.689453" y="0.695801" width="30" height="30" fill="#D9D9D9"/>
</mask>
<g mask="url(#mask0_2723_1520)">
<path d="M11.9395 16.9458C11.5853 16.9458 11.2884 16.826 11.0488 16.5864C10.8092 16.3468 10.6895 16.05 10.6895 15.6958C10.6895 15.3416 10.8092 15.0448 11.0488 14.8052C11.2884 14.5656 11.5853 14.4458 11.9395 14.4458C12.2936 14.4458 12.5905 14.5656 12.8301 14.8052C13.0697 15.0448 13.1895 15.3416 13.1895 15.6958C13.1895 16.05 13.0697 16.3468 12.8301 16.5864C12.5905 16.826 12.2936 16.9458 11.9395 16.9458ZM19.4395 16.9458C19.0853 16.9458 18.7884 16.826 18.5488 16.5864C18.3092 16.3468 18.1895 16.05 18.1895 15.6958C18.1895 15.3416 18.3092 15.0448 18.5488 14.8052C18.7884 14.5656 19.0853 14.4458 19.4395 14.4458C19.7936 14.4458 20.0905 14.5656 20.3301 14.8052C20.5697 15.0448 20.6895 15.3416 20.6895 15.6958C20.6895 16.05 20.5697 16.3468 20.3301 16.5864C20.0905 16.826 19.7936 16.9458 19.4395 16.9458ZM4.43945 26.9458V24.4458H5.68945V6.9458C5.68945 6.2583 5.93424 5.66976 6.42383 5.18018C6.91341 4.69059 7.50195 4.4458 8.18945 4.4458H23.1895C23.877 4.4458 24.4655 4.69059 24.9551 5.18018C25.4447 5.66976 25.6895 6.2583 25.6895 6.9458V24.4458H26.9395V26.9458H4.43945ZM8.18945 24.4458H14.4395V6.9458H8.18945V24.4458ZM16.9395 24.4458H23.1895V6.9458H16.9395V24.4458Z" fill="#00B5E2"/>
</g>
</svg>
